<?xml version="1.0" standalone="no"?>
<!DOCTYPE svg PUBLIC "-//W3C//DTD SVG 20010904//EN"
 "http://www.w3.org/TR/2001/REC-SVG-20010904/DTD/svg10.dtd">
<svg version="1.0" xmlns="http://www.w3.org/2000/svg"
 width="512.000000pt" height="117.000000pt" viewBox="0 0 512.000000 117.000000"
 preserveAspectRatio="xMidYMid meet">

<g transform="translate(0.000000,117.000000) scale(0.100000,-0.100000)"
fill="#000000" stroke="none">
<path d="M0 585 l0 -585 2560 0 2560 0 0 585 0 585 -2560 0 -2560 0 0 -585z
m495 140 l0 -40 -107 -3 -108 -3 0 -29 0 -30 84 0 c77 0 85 -2 91 -21 4 -11 4
-31 1 -45 -6 -23 -10 -24 -91 -24 l-85 0 0 -55 0 -55 -55 0 -55 0 0 168 c0 93
3 172 7 176 4 3 77 5 162 4 l156 -3 0 -40z m341 26 c79 -36 99 -109 44 -161
-17 -16 -26 -31 -21 -34 13 -8 71 -110 71 -125 0 -7 -22 -11 -58 -11 l-59 0
-27 50 c-30 55 -50 70 -95 70 l-31 0 0 -60 0 -60 -55 0 -55 0 0 175 0 175 123
0 c97 0 130 -4 163 -19z m359 -26 c0 -38 -2 -40 -33 -43 l-33 -3 3 -87 3 -87
30 -5 c26 -4 30 -10 33 -41 4 -45 -7 -49 -129 -49 -99 0 -122 11 -117 55 3 26
8 30 36 33 l32 3 0 90 0 89 -29 0 c-33 0 -47 25 -37 66 7 25 7 25 124 22 l117
-3 0 -40z m390 0 l0 -40 -112 -3 c-105 -2 -113 -4 -113 -22 0 -18 7 -20 85
-20 81 0 85 -1 91 -24 14 -55 6 -61 -89 -64 -85 -3 -88 -4 -85 -25 3 -21 8
-22 116 -25 l112 -3 0 -38 c0 -32 -4 -40 -22 -45 -30 -8 -282 -8 -302 0 -14 5
-16 30 -16 173 0 92 3 171 7 175 4 3 79 5 167 4 l161 -3 0 -40z m242 -52 l68
-98 5 95 5 95 50 0 50 0 3 -173 2 -173 -62 3 -63 3 -65 95 -65 95 -3 -97 -3
-98 -54 0 -55 0 0 168 c0 93 3 172 7 175 3 4 30 7 59 7 l53 0 68 -97z m520 82
c110 -33 154 -160 92 -262 -31 -50 -89 -72 -210 -79 -155 -10 -149 -17 -149
171 0 84 3 160 6 169 8 22 189 22 261 1z m436 1 c40 -17 66 -45 69 -77 3 -22
-1 -24 -48 -27 -40 -2 -54 1 -69 18 -26 29 -105 26 -105 -5 0 -15 4 -17 112
-40 63 -13 82 -22 103 -46 14 -17 25 -39 25 -50 0 -34 -29 -78 -63 -95 -42
-22 -150 -29 -206 -14 -54 14 -104 61 -99 92 2 19 10 24 47 26 34 3 49 -2 67
-19 27 -25 105 -32 126 -11 19 19 -1 30 -84 46 -88 17 -111 27 -132 58 -34 48
-13 109 49 141 38 20 164 22 208 3z m401 3 c22 -6 52 -24 68 -39 23 -24 28
-37 28 -78 0 -92 -57 -132 -187 -132 l-63 0 0 -45 0 -45 -55 0 -55 0 0 168 c0
93 3 172 7 175 11 11 215 8 257 -4z m256 -59 l0 -70 70 0 69 0 3 68 3 67 55 0
55 0 0 -170 0 -170 -55 0 -55 0 -3 58 -3 57 -69 0 -70 0 0 -60 0 -60 -55 0
-55 0 0 168 c0 93 3 172 7 175 3 4 28 7 55 7 l48 0 0 -70z m665 25 l0 -40
-112 -3 c-104 -2 -113 -4 -113 -22 0 -17 9 -20 81 -22 90 -3 107 -14 95 -61
-6 -27 -8 -27 -91 -27 -84 0 -85 0 -85 -25 l0 -25 115 0 115 0 0 -39 c0 -32
-4 -40 -22 -45 -30 -8 -282 -8 -302 0 -14 5 -16 30 -16 173 0 92 3 171 7 175
4 3 79 5 167 4 l161 -3 0 -40z m361 23 c38 -21 67 -77 58 -113 -3 -14 -19 -36
-35 -49 -25 -21 -27 -26 -13 -37 16 -13 74 -108 74 -121 0 -5 -27 -8 -60 -8
l-60 0 -31 55 c-25 45 -36 55 -65 61 -55 10 -64 2 -64 -61 l0 -55 -55 0 -55 0
0 168 c0 93 3 172 8 176 4 4 66 6 137 4 97 -3 138 -8 161 -20z m462 -25 l3
-43 -115 0 c-109 0 -116 -1 -116 -20 0 -17 8 -19 88 -22 l87 -3 0 -40 0 -40
-88 -3 c-85 -3 -88 -4 -85 -25 3 -21 8 -22 116 -25 l112 -3 0 -38 c0 -26 -5
-41 -16 -45 -20 -8 -272 -8 -301 0 -23 6 -23 9 -23 173 0 92 3 171 7 175 4 3
79 5 167 4 l161 -3 3 -42z"/>
<path d="M660 655 l0 -36 62 3 c53 3 63 6 66 22 6 28 -25 46 -80 46 l-48 0 0
-35z"/>
<path d="M2200 596 l0 -96 46 0 c25 0 53 4 63 10 45 23 51 119 11 155 -11 10
-42 20 -70 23 l-50 5 0 -97z"/>
<path d="M3037 683 c-4 -3 -7 -26 -7 -50 l0 -43 50 0 c49 0 90 23 90 50 0 25
-41 50 -83 50 -24 0 -47 -3 -50 -7z"/>
<path d="M4275 679 c-4 -5 -4 -21 -1 -35 6 -22 11 -24 60 -24 56 0 81 15 70
43 -3 8 -15 18 -27 21 -36 9 -95 7 -102 -5z"/>
</g>
</svg>
